<?xml version="1.0" encoding="UTF-8"?>
<svg width="861px" height="653px" viewBox="0 0 861 653" version="1.1" xmlns="http://www.w3.org/2000/svg" xmlns:xlink="http://www.w3.org/1999/xlink">
    <!-- Generator: Sketch 54.1 (76490) - https://sketchapp.com -->
    <title>ASAP Quotes</title>
    <desc>Created with Sketch.</desc>
    <g id="ASAP-Quotes" stroke="none" stroke-width="1" fill="none" fill-rule="evenodd">
        <rect fill="#FFFFFF" x="0" y="0" width="861" height="653"></rect>
        <g id="Group-4" transform="translate(63.000000, 67.000000)">
            <g id="Group" transform="translate(0.000000, 335.000000)">
                <path d="M22,11 L470,10.9999967 C475.522847,10.9999967 480,15.4771492 480,20.9999967 C480,20.9999978 480,20.9999989 480,21 L479.999953,141.704509 C479.999951,147.227356 475.522799,151.704506 469.999953,151.704506 L95.2115636,151.704509 C93.7862195,151.704509 92.3773437,152.009211 91.0793798,152.59819 L41.7112841,175 L47.2933812,151.704509 L22,151.704509 C16.4771525,151.704509 12,147.227357 12,141.704509 L12,21 C12,15.4771525 16.4771525,11 22,11 Z" id="Rectangle" fill-opacity="0.27229021" fill="#AEADF7"></path>
                <path d="M34.8866509,162.740014 L80.0992817,142.291454 C81.7826283,141.530118 83.6089173,141.136327 85.456426,141.136327 L470.999952,141.136323 C474.865944,141.136323 477.999951,138.002318 477.999952,134.136326 L478,9.99999666 C478,6.13400341 474.865993,2.99999666 471,2.99999666 L10,3 C6.13400675,3 3,6.13400675 3,10 L3,134.136327 C3,138.00232 6.13400675,141.136327 10,141.136327 L40.0804745,141.136327 L34.8866509,162.740014 Z" id="Rectangle" stroke="#000000" stroke-width="6"></path>
                <g id="Group-3" transform="translate(41.000000, 28.000000)">
                    <text id="My-roommate-has-prob" font-family="OpenSans-Bold, Open Sans" font-size="18" font-weight="bold" fill="#000000">
                        <tspan x="0" y="19">My roommate has problems with drinking </tspan>
                        <tspan x="0" y="43">too much. I’m uncomfortable bringing it up to </tspan>
                        <tspan x="0" y="67">the RA, because I’m scared that she may get </tspan>
                        <tspan x="0" y="91">in trouble.</tspan>
                    </text>
                    <path d="M181,72.2800918 C208.422802,70.5733027 262.066259,70.5733027 292.782325,72.2800918 C298.815769,72.6153501 282.645277,74.4331287 292.782325,73.9041595 C301.177446,73.4660872 315.471285,73.9041595 335.729659,73.9041595 C354.114006,73.9041595 380.046261,73.6183078 389,73.9041595" id="Path-11" stroke="#5957BC" stroke-width="3" stroke-linecap="round"></path>
                    <path d="M0,95.4266973 C11.8656356,94.8577676 35.0767469,94.8577676 48.3673522,95.4266973 C50.9779769,95.53845 43.9811293,96.1443762 48.3673522,95.9680532 C51.9998563,95.8220291 58.1846906,95.9680532 66.9503334,95.9680532 C74.9050986,95.9680532 86.125786,95.8727693 90,95.9680532" id="Path-11" stroke="#5957BC" stroke-width="3" stroke-linecap="round"></path>
                </g>
            </g>
            <g id="Group">
                <path d="M22,12 L470,11.9999968 C475.522847,11.9999968 480,16.4771493 480,21.9999968 C480,21.9999979 480,21.9999989 480,22 L479.999953,147.852235 C479.999951,153.375082 475.522799,157.852232 469.999953,157.852232 L95.2832721,157.852235 C93.8117886,157.852235 92.3584376,158.176978 91.026901,158.803296 L41.7112841,182 L47.2933812,157.852235 L22,157.852235 C16.4771525,157.852235 12,153.375083 12,147.852235 L12,22 C12,16.4771525 16.4771525,12 22,12 Z" id="Rectangle" fill-opacity="0.27" fill="#AEADF7"></path>
                <path d="M34.8498384,169.651684 L79.9973598,148.381775 C81.7302875,147.565358 83.6222287,147.142007 85.5378424,147.142007 L470.999952,147.142004 C474.865944,147.142004 477.999951,144.007998 477.999952,140.142006 L478,9.99999679 C478,6.13400354 474.865993,2.99999679 471,2.99999679 L10,3 C6.13400675,3 3,6.13400675 3,10 L3,140.142007 C3,144.008 6.13400675,147.142007 10,147.142007 L40.0450089,147.142007 L34.8498384,169.651684 Z" id="Rectangle" stroke="#000000" stroke-width="6"></path>
                <g id="Group-3" transform="translate(41.000000, 28.000000)">
                    <text id="My-roommate-got-real" font-family="OpenSans-Bold, Open Sans" font-size="18" font-weight="bold" fill="#000000">
                        <tspan x="0" y="19.5">My roommate got really drunk and threw up </tspan>
                        <tspan x="0" y="43.5">on my stuff. I was really worried about her </tspan>
                        <tspan x="0" y="67.5">throwing up and choking. I didn’t want to call </tspan>
                        <tspan x="0" y="91.5">911 because the police were going to come.</tspan>
                    </text>
                    <path d="M234,74.2466798 C257.122342,73.021808 285.938159,73.021808 317.083626,73.4353446 C335.421067,73.6788215 359.606042,74.6262929 368.153393,74.2466798 C381.617519,73.6486982 365.214617,73.1880353 374.64055,72.6362864 C384.066483,72.0845375 383.08138,73.8141335 399,74.2466798" id="Path-11" stroke="#5957BC" stroke-width="3" stroke-linecap="round" transform="translate(316.500000, 73.432043) scale(-1, -1) translate(-316.500000, -73.432043) "></path>
                    <path d="M0,99.00567 C53.8119957,97.7807983 120.874262,97.7807983 193.358258,98.1943349 C236.034484,98.4378118 292.319517,99.3852831 312.211533,99.00567 C343.546226,98.4076884 346.856659,97.6460686 368.793376,97.0943197 C390.730093,96.5425708 346.953031,98.5731237 384,99.00567" id="Path-11" stroke="#5957BC" stroke-width="3" stroke-linecap="round" transform="translate(192.000000, 98.047160) scale(1, -1) translate(-192.000000, -98.047160) "></path>
                </g>
            </g>
            <g id="Group" transform="translate(532.500000, 256.500000) scale(-1, 1) translate(-532.500000, -256.500000) translate(318.000000, 202.000000)">
                <path d="M21,7 L418,6.99999523 C423.522847,6.99999523 428,11.4771477 428,16.9999952 C428,16.9999968 428,16.9999984 428,17 L427.999958,84.5113413 C427.999956,90.0341869 423.522804,94.5113365 417.999958,94.5113365 L84.7624423,94.5113413 C83.7379568,94.5113413 82.7195549,94.6687714 81.7428902,94.9781201 L37.473516,109 L42.4473076,94.5113413 L21,94.5113413 C15.4771525,94.5113413 11,90.0341888 11,84.5113413 L11,17 C11,11.4771525 15.4771525,7 21,7 Z" id="Rectangle" fill-opacity="0.27" fill="#AEADF7"></path>
                <path d="M32.0053282,100.341156 L71.913908,87.6927141 C73.1842386,87.2901014 74.5089215,87.0852042 75.8415267,87.0852042 L418.999957,87.0851995 C422.865949,87.0851995 425.999955,83.9511947 425.999957,80.0852024 L426,9.99999523 C426,6.13400198 422.865993,2.99999523 419,2.99999523 L10,3 C6.13400675,3 3,6.13400675 3,10 L3,80.0852042 C3,83.9511975 6.13400675,87.0852042 10,87.0852042 L36.5531394,87.0852042 L32.0053282,100.341156 Z" id="Rectangle" stroke="#000000" stroke-width="6"></path>
                <g id="Group-3" transform="translate(197.500000, 45.500000) scale(-1, 1) translate(-197.500000, -45.500000) translate(14.000000, 32.000000)">
                    <text id="I-don't-feel-comfort" font-family="OpenSans-Bold, Open Sans" font-size="18" font-weight="bold" fill="#000000">
                        <tspan x="0" y="19.6666667">I don't feel comfortable calling EMTs.</tspan>
                    </text>
                    <path d="M15,26.6796366 C42.0461333,25.32362 75.7519075,25.32362 112.182666,25.7814332 C133.631915,26.0509788 161.921007,27.0998941 171.918817,26.6796366 C187.667764,26.0176302 168.48134,25.507645 179.506825,24.8968213 C190.532311,24.2859976 189.380039,26.2007783 208,26.6796366" id="Path-11" stroke="#5957BC" stroke-width="3" stroke-linecap="round" transform="translate(111.500000, 25.777778) scale(-1, -1) translate(-111.500000, -25.777778) "></path>
                </g>
            </g>
        </g>
    </g>
</svg>